<svg width="16" height="16" viewBox="0 0 16 16" fill="none" xmlns="http://www.w3.org/2000/svg">
<path fill-rule="evenodd" clip-rule="evenodd" d="M8.16431 1.33313C11.197 1.33313 13.6643 3.81913 13.6643 6.87513C13.6643 10.6318 9.36031 14.3331 8.16431 14.3331C6.96831 14.3331 2.66431 10.6318 2.66431 6.87513C2.66431 3.81913 5.13164 1.33313 8.16431 1.33313ZM8.16431 2.33313C5.68297 2.33313 3.66431 4.37113 3.66431 6.87513C3.66431 10.0611 7.41364 13.1651 8.16431 13.3305C8.91497 13.1645 12.6643 10.0605 12.6643 6.87513C12.6643 4.37113 10.6456 2.33313 8.16431 2.33313ZM8.16497 4.66646C9.35964 4.66646 10.3316 5.63846 10.3316 6.8338C10.3316 8.02846 9.35964 8.9998 8.16497 8.9998C6.97031 8.9998 5.99831 8.02846 5.99831 6.8338C5.99831 5.63846 6.97031 4.66646 8.16497 4.66646ZM8.16497 5.66646C7.52164 5.66646 6.99831 6.1898 6.99831 6.8338C6.99831 7.47713 7.52164 7.9998 8.16497 7.9998C8.80831 7.9998 9.33164 7.47713 9.33164 6.8338C9.33164 6.1898 8.80831 5.66646 8.16497 5.66646Z" fill="#171717"/>
</svg>
