<svg width="16" height="16" viewBox="0 0 16 16" fill="none" xmlns="http://www.w3.org/2000/svg">
<g clip-path="url(#clip0_481_1818)">
<path d="M2.39941 0.863281C2.4254 0.862395 2.45138 0.861509 2.47815 0.860596C2.702 0.899269 2.86518 1.10705 3.01807 1.26074C3.04332 1.28593 3.06857 1.31112 3.09458 1.33708C3.14771 1.39016 3.20076 1.44333 3.25374 1.49657C3.3349 1.57807 3.41639 1.65922 3.49792 1.74036C3.54958 1.79205 3.60122 1.84377 3.65283 1.89551C3.67721 1.91976 3.70159 1.94402 3.72671 1.96901C3.76052 2.00311 3.76052 2.00311 3.79501 2.0379C3.82477 2.06773 3.82477 2.06773 3.85512 2.09816C3.96476 2.22515 3.98002 2.33102 3.97546 2.49426C3.96448 2.59168 3.93887 2.64526 3.87402 2.71875C3.74228 2.81286 3.63285 2.82958 3.47668 2.80481C3.33973 2.75963 3.25484 2.66285 3.15527 2.5625C3.12862 2.53585 3.10197 2.5092 3.07452 2.48174C2.99727 2.4045 2.92002 2.32725 2.84277 2.25C2.84063 3.5595 2.83898 4.86899 2.83799 6.17849C2.83787 6.33307 2.83775 6.48766 2.83762 6.64224C2.83759 6.68841 2.83759 6.68841 2.83755 6.7355C2.83714 7.23386 2.8364 7.73222 2.83554 8.23058C2.83466 8.74191 2.83414 9.25324 2.83395 9.76458C2.83382 10.0801 2.83342 10.3957 2.83266 10.7112C2.83216 10.9275 2.83201 11.1439 2.83213 11.3603C2.83219 11.4851 2.8321 11.6099 2.8316 11.7348C2.83114 11.8491 2.83112 11.9635 2.83144 12.0778C2.8315 12.1387 2.83109 12.1995 2.83067 12.2603C2.83221 12.5612 2.87143 12.7787 3.09277 13C3.26311 13.1198 3.40747 13.1602 3.61296 13.1601C3.64913 13.1602 3.6853 13.1602 3.72257 13.1603C3.76233 13.1602 3.80209 13.1601 3.84306 13.16C3.8857 13.16 3.92835 13.16 3.97099 13.1601C4.08829 13.1602 4.20558 13.16 4.32288 13.1599C4.44933 13.1597 4.57578 13.1598 4.70222 13.1598C4.92134 13.1598 5.14046 13.1597 5.35957 13.1596C5.67638 13.1593 5.99319 13.1592 6.30999 13.1592C6.82397 13.1591 7.33795 13.1589 7.85193 13.1586C8.35126 13.1583 8.85059 13.1581 9.34991 13.158C9.38068 13.158 9.41146 13.158 9.44316 13.1579C9.59752 13.1579 9.75189 13.1579 9.90625 13.1578C11.1872 13.1575 12.4681 13.1569 13.749 13.1562C13.7342 13.1418 13.7194 13.1273 13.7041 13.1123C13.6369 13.0464 13.5699 12.9802 13.5029 12.9141C13.4796 12.8913 13.4563 12.8685 13.4323 12.845C13.4099 12.8228 13.3875 12.8007 13.3645 12.7778C13.3336 12.7474 13.3336 12.7474 13.302 12.7163C13.2174 12.6204 13.1886 12.5536 13.1768 12.4258C13.1902 12.27 13.2285 12.1707 13.3467 12.0664C13.4704 12.018 13.587 12.004 13.7178 12.0312C13.8954 12.1338 14.0307 12.2731 14.1743 12.4181C14.1996 12.4434 14.2248 12.4686 14.2508 12.4947C14.304 12.5479 14.357 12.6012 14.41 12.6545C14.4912 12.7363 14.5727 12.8179 14.6542 12.8994C14.7058 12.9512 14.7575 13.003 14.8091 13.0548C14.8335 13.0792 14.8578 13.1036 14.883 13.1288C14.9168 13.1629 14.9168 13.1629 14.9513 13.1977C14.9711 13.2177 14.9909 13.2376 15.0114 13.2582C15.1062 13.3609 15.1356 13.4311 15.1416 13.5684C15.1446 13.6106 15.1446 13.6106 15.1476 13.6537C15.089 13.8933 14.8175 14.0924 14.6469 14.2626C14.623 14.2864 14.5992 14.3103 14.5747 14.3348C14.5248 14.3847 14.4749 14.4346 14.4249 14.4844C14.3482 14.561 14.2717 14.6377 14.1951 14.7144C14.1465 14.763 14.0978 14.8116 14.0492 14.8602C14.0263 14.8832 14.0034 14.9062 13.9798 14.9299C13.9586 14.951 13.9374 14.972 13.9156 14.9938C13.8969 15.0124 13.8783 15.031 13.8591 15.0502C13.7497 15.1504 13.6314 15.1353 13.4897 15.1338C13.3747 15.1218 13.3229 15.0882 13.249 15C13.1749 14.8822 13.1758 14.7693 13.1953 14.635C13.2382 14.4967 13.3359 14.4123 13.4365 14.3125C13.4632 14.2859 13.4898 14.2592 13.5173 14.2317C13.5945 14.1545 13.6718 14.0772 13.749 14C13.7162 14 13.7162 14 13.6828 13.9999C12.3861 13.9988 11.0894 13.9971 9.79268 13.9944C9.63689 13.9941 9.4811 13.9938 9.32531 13.9935C9.2943 13.9935 9.26328 13.9934 9.23133 13.9933C8.72954 13.9924 8.22775 13.9918 7.72595 13.9915C7.21084 13.9911 6.69573 13.9902 6.18062 13.9889C5.86292 13.9881 5.54523 13.9877 5.22753 13.9878C5.00949 13.9878 4.79146 13.9873 4.57343 13.9865C4.44775 13.986 4.32207 13.9858 4.19639 13.9861C4.08108 13.9863 3.96578 13.986 3.85047 13.9852C3.78951 13.985 3.72854 13.9853 3.66758 13.9857C3.20192 13.9812 2.77323 13.8292 2.43652 13.5C2.19272 13.2043 2.02696 12.8615 2.02594 12.4745C2.02577 12.4379 2.0256 12.4014 2.02542 12.3637C2.02539 12.3237 2.02536 12.2836 2.02533 12.2424C2.02519 12.1993 2.02503 12.1563 2.02486 12.1132C2.02444 11.9949 2.02421 11.8766 2.024 11.7583C2.02375 11.6308 2.02333 11.5032 2.02292 11.3756C2.02224 11.1546 2.02167 10.9336 2.02118 10.7125C2.02047 10.393 2.01959 10.0734 2.01867 9.75384C2.01718 9.23537 2.01583 8.7169 2.01456 8.19843C2.01333 7.69477 2.01204 7.19111 2.01066 6.68745C2.01057 6.6564 2.01049 6.62536 2.0104 6.59338C2.00997 6.43765 2.00954 6.28192 2.00911 6.12619C2.00555 4.83413 2.00222 3.54206 1.99902 2.25C1.98581 2.26371 1.97259 2.27742 1.95897 2.29154C1.89835 2.35412 1.83737 2.41632 1.77637 2.47852C1.75558 2.50009 1.73479 2.52166 1.71338 2.54388C1.46089 2.80009 1.46089 2.80009 1.26843 2.82031C1.0981 2.80081 1.01668 2.76426 0.905273 2.625C0.894961 2.61469 0.884648 2.60438 0.874023 2.59375C0.863281 2.52429 0.863281 2.52429 0.858398 2.43555C0.856143 2.40682 0.853887 2.3781 0.851562 2.34851C0.905829 2.1105 1.17441 1.91372 1.34326 1.74536C1.36631 1.72228 1.38936 1.6992 1.41311 1.67542C1.4614 1.62712 1.50972 1.57885 1.55807 1.53062C1.63218 1.45669 1.70611 1.38259 1.78003 1.30847C1.82714 1.26138 1.87426 1.2143 1.92139 1.16724C1.94346 1.1451 1.96553 1.12297 1.98827 1.10016C2.00883 1.0797 2.02939 1.05924 2.05057 1.03816C2.06857 1.02018 2.08658 1.0022 2.10513 0.98367C2.20341 0.893171 2.26854 0.865292 2.39941 0.863281Z" fill="#171717"/>
<path d="M5.05716 0.866962C5.10406 0.866631 5.10406 0.866631 5.15191 0.866293C5.18635 0.866369 5.2208 0.866444 5.25629 0.866522C5.29281 0.866358 5.32934 0.866195 5.36697 0.866026C5.46853 0.865637 5.57008 0.865531 5.67164 0.865545C5.78112 0.865493 5.8906 0.865085 6.00008 0.864726C6.23963 0.864011 6.47919 0.863764 6.71875 0.863607C6.86842 0.863505 7.0181 0.863301 7.16778 0.863075C7.58242 0.862464 7.99705 0.861951 8.41168 0.86186C8.43823 0.861855 8.46478 0.861849 8.49213 0.861843C8.54595 0.861831 8.59977 0.86182 8.65359 0.861809C8.6803 0.861803 8.70702 0.861797 8.73454 0.861791C8.77466 0.861783 8.77466 0.861783 8.81559 0.861774C9.24835 0.861664 9.6811 0.86082 10.1139 0.859651C10.5585 0.858459 11.003 0.857855 11.4476 0.857846C11.6971 0.857828 11.9466 0.857565 12.1961 0.856659C12.4088 0.85589 12.6214 0.855667 12.834 0.856135C12.9423 0.856358 13.0507 0.856337 13.159 0.855622C14.193 0.849995 14.193 0.849995 14.625 1.25009C14.6449 1.26749 14.6648 1.28489 14.6852 1.30282C14.9491 1.54694 15.1244 1.91674 15.1408 2.27626C15.1414 2.34277 15.1415 2.40929 15.1409 2.4758C15.1412 2.5312 15.1412 2.5312 15.1415 2.58773C15.1419 2.68927 15.1418 2.79079 15.1414 2.89233C15.1411 3.00221 15.1415 3.11208 15.1419 3.22195C15.1424 3.43676 15.1423 3.65155 15.1419 3.86636C15.1417 4.04091 15.1416 4.21546 15.1418 4.39001C15.1418 4.41489 15.1418 4.43978 15.1418 4.46542C15.1419 4.51598 15.1419 4.56654 15.1419 4.61711C15.1423 5.09049 15.1419 5.56387 15.1412 6.03725C15.1407 6.44341 15.1408 6.84956 15.1413 7.25572C15.142 7.72775 15.1423 8.19979 15.1419 8.67182C15.1418 8.72214 15.1418 8.77245 15.1418 8.82276C15.1417 8.85989 15.1417 8.85989 15.1417 8.89777C15.1416 9.0722 15.1418 9.24663 15.1421 9.42106C15.1424 9.63349 15.1423 9.84591 15.1417 10.0583C15.1413 10.1667 15.1412 10.2751 15.1416 10.3835C15.142 10.5009 15.1415 10.6183 15.1409 10.7357C15.1413 10.7872 15.1413 10.7872 15.1418 10.8397C15.1394 11.0705 15.1394 11.0705 15.065 11.1918C14.9434 11.3009 14.856 11.3268 14.6885 11.3227C14.5839 11.306 14.5175 11.2542 14.4375 11.1876C14.3494 11.0554 14.3399 10.9393 14.3399 10.7831C14.3398 10.7526 14.3397 10.7221 14.3397 10.6907C14.3397 10.6574 14.3398 10.6242 14.3399 10.5899C14.3398 10.5544 14.3398 10.5189 14.3398 10.4823C14.3396 10.363 14.3397 10.2437 14.3398 10.1245C14.3398 10.039 14.3397 9.95363 14.3397 9.86821C14.3395 9.70798 14.3395 9.54775 14.3395 9.38751C14.3395 9.07253 14.3391 8.75756 14.3385 8.44258C14.3385 8.39296 14.3384 8.34335 14.3383 8.29373C14.3382 8.21854 14.3381 8.14335 14.3379 8.06816C14.3375 7.78475 14.337 7.50133 14.3367 7.21792C14.3366 7.17906 14.3366 7.17906 14.3366 7.13942C14.336 6.71982 14.3359 6.30022 14.336 5.88063C14.336 5.44959 14.3355 5.01855 14.3344 4.58752C14.3337 4.3218 14.3336 4.05608 14.334 3.79036C14.3343 3.60814 14.334 3.42593 14.3332 3.24372C14.3328 3.13867 14.3327 3.03365 14.3332 2.9286C14.3336 2.81451 14.3331 2.70046 14.3323 2.58636C14.3327 2.55346 14.333 2.52055 14.3334 2.48665C14.3305 2.26519 14.285 2.08951 14.1563 1.90634C13.8856 1.66306 13.5813 1.64693 13.2312 1.64848C13.1956 1.64839 13.16 1.64829 13.1233 1.6482C13.0045 1.64796 12.8857 1.64816 12.7669 1.64836C12.6815 1.64831 12.5961 1.64816 12.5107 1.64802C12.3271 1.64775 12.1435 1.64769 11.9599 1.64776C11.6943 1.64786 11.4287 1.6475 11.1631 1.647C10.7319 1.64619 10.3007 1.64556 9.86945 1.64514C9.84367 1.64511 9.81789 1.64509 9.79133 1.64506C9.42507 1.64471 9.05882 1.64455 8.69256 1.64446C8.66674 1.64445 8.64093 1.64444 8.61432 1.64444C8.57564 1.64443 8.57564 1.64443 8.53618 1.64442C8.10638 1.6443 7.67658 1.64371 7.24677 1.64272C6.98176 1.64212 6.71676 1.64194 6.45175 1.64227C6.27031 1.64247 6.08887 1.64222 5.90743 1.64161C5.80272 1.64128 5.69803 1.64122 5.59333 1.64157C5.47987 1.64191 5.36645 1.6415 5.25299 1.64089C5.20326 1.64131 5.20326 1.64131 5.15252 1.64175C4.92946 1.63941 4.92946 1.63941 4.80905 1.56502C4.69895 1.44389 4.67334 1.35628 4.6774 1.18857C4.6941 1.08398 4.74593 1.01751 4.81254 0.937589C4.91362 0.870197 4.94061 0.867225 5.05716 0.866962Z" fill="#171717"/>
<path d="M5.62576 4.93731C5.75423 5.00811 5.80199 5.07943 5.84451 5.21856C5.86525 5.21216 5.886 5.20575 5.90737 5.19915C5.93497 5.19073 5.96256 5.18232 5.99099 5.17364C6.01818 5.1653 6.04537 5.15696 6.07339 5.14837C6.43149 5.04748 6.8128 5.06421 7.14968 5.22979C7.29968 5.31692 7.43411 5.41551 7.56326 5.53106C7.57993 5.51708 7.59661 5.50311 7.61379 5.4887C7.97593 5.19486 8.34326 5.05247 8.81326 5.09356C9.23399 5.16261 9.57983 5.35808 9.84011 5.70147C10.0704 6.06397 10.0992 6.44487 10.099 6.86372C10.0991 6.89942 10.0993 6.93512 10.0994 6.97191C10.0997 7.08936 10.0997 7.20682 10.0998 7.32428C10.0999 7.40614 10.1 7.48801 10.1001 7.56988C10.1003 7.7412 10.1003 7.91252 10.1003 8.08384C10.1003 8.28159 10.1006 8.47934 10.1011 8.67709C10.1016 8.86784 10.1017 9.05859 10.1017 9.24934C10.1017 9.3303 10.1018 9.41126 10.1021 9.49222C10.1024 9.60531 10.1023 9.7184 10.1021 9.83149C10.1023 9.86491 10.1024 9.89832 10.1026 9.93275C10.1018 10.1365 10.0917 10.2934 9.96755 10.4627C9.84545 10.5536 9.74571 10.5758 9.59451 10.5623C9.48805 10.5261 9.40134 10.4772 9.33904 10.3801C9.30894 10.301 9.30526 10.2401 9.30497 10.1554C9.30472 10.1238 9.30446 10.0922 9.30419 10.0596C9.30422 10.0251 9.30425 9.99054 9.30428 9.95498C9.30407 9.91848 9.30386 9.88199 9.30364 9.84438C9.30321 9.76508 9.30293 9.68577 9.30277 9.60647C9.30251 9.48089 9.30188 9.35532 9.30113 9.22975C9.2996 8.963 9.29859 8.69625 9.29763 8.4295C9.2966 8.14193 9.29547 7.85435 9.29375 7.56678C9.29291 7.42208 9.29254 7.27739 9.29225 7.13269C9.29184 7.05665 9.29142 6.98061 9.29098 6.90457C9.29101 6.87031 9.29104 6.83604 9.29107 6.80074C9.2889 6.5325 9.26746 6.311 9.09451 6.09356C8.95893 5.96512 8.83368 5.91563 8.64919 5.89434C8.46439 5.91282 8.29325 5.95717 8.15896 6.09173C8.04802 6.23654 7.99696 6.34764 7.99644 6.53193C7.99627 6.5644 7.9961 6.59686 7.99593 6.63031C7.99589 6.66591 7.99586 6.70151 7.99583 6.73819C7.99567 6.7757 7.99551 6.81321 7.99535 6.85185C7.99501 6.93344 7.99473 7.01504 7.99453 7.09663C7.9942 7.22573 7.99356 7.35482 7.99287 7.48392C7.99093 7.85102 7.98925 8.21813 7.98821 8.58524C7.98764 8.78799 7.98673 8.99073 7.98546 9.19348C7.9848 9.30073 7.98432 9.40797 7.98425 9.51522C7.9841 9.63492 7.98337 9.7546 7.98252 9.8743C7.98266 9.92742 7.98266 9.92742 7.98281 9.98161C7.98064 10.1858 7.96685 10.3357 7.82497 10.494C7.71019 10.5513 7.59733 10.566 7.46951 10.5623C7.33802 10.5097 7.26137 10.4326 7.18826 10.3123C7.16951 10.1902 7.17161 10.069 7.17268 9.9457C7.17251 9.90859 7.17234 9.87147 7.17216 9.83324C7.17179 9.73167 7.17197 9.63011 7.17236 9.52854C7.17261 9.42201 7.17208 9.31548 7.17162 9.20896C7.17065 8.96108 7.17061 8.71321 7.17067 8.46533C7.17071 8.15016 7.17038 7.83499 7.16915 7.51983C7.16876 7.4139 7.16858 7.30799 7.16888 7.20207C7.16917 7.08381 7.16891 6.96556 7.16853 6.84731C7.16877 6.81251 7.16902 6.77771 7.16926 6.74186C7.16767 6.49744 7.13281 6.32494 6.99685 6.117C6.85498 5.9813 6.70897 5.91628 6.51443 5.89239C6.29762 5.91998 6.14056 5.9813 6.00076 6.15606C5.86431 6.35862 5.85809 6.54535 5.86018 6.78431C5.86001 6.82154 5.85984 6.85876 5.85966 6.89712C5.85929 6.99855 5.85947 7.09997 5.85986 7.2014C5.86011 7.30788 5.85958 7.41435 5.85912 7.52082C5.85816 7.76819 5.85811 8.01557 5.85817 8.26294C5.85821 8.57805 5.85789 8.89314 5.85665 9.20824C5.85626 9.31409 5.85608 9.41993 5.85638 9.52578C5.85667 9.64374 5.85641 9.76169 5.85603 9.87965C5.85627 9.91452 5.85652 9.9494 5.85676 9.98533C5.85543 10.1884 5.84107 10.3366 5.69997 10.494C5.58455 10.5517 5.47327 10.5697 5.34451 10.5623C5.20257 10.494 5.13192 10.4211 5.06326 10.2811C5.05137 10.1828 5.05137 10.1828 5.05114 10.0702C5.05097 10.0494 5.0508 10.0286 5.05063 10.0071C5.05018 9.93764 5.05041 9.86819 5.05063 9.79871C5.05045 9.74881 5.05023 9.6989 5.04998 9.649C5.04942 9.5136 5.04945 9.37822 5.04963 9.24282C5.04973 9.12975 5.04954 9.01667 5.04935 8.9036C5.04891 8.63683 5.04896 8.37006 5.04932 8.10329C5.04968 7.82816 5.04924 7.55304 5.0484 7.27792C5.04771 7.04161 5.0475 6.8053 5.04768 6.56899C5.04779 6.42789 5.04771 6.2868 5.04717 6.1457C5.04669 6.01301 5.04681 5.88033 5.0474 5.74764C5.04752 5.69899 5.04742 5.65034 5.04709 5.60169C5.04668 5.53517 5.04704 5.4687 5.04759 5.40219C5.0476 5.365 5.04761 5.32781 5.04761 5.2895C5.06669 5.16489 5.11001 5.09762 5.18826 4.99981C5.32762 4.9069 5.46234 4.91793 5.62576 4.93731Z" fill="#171717"/>
<path d="M12.4379 3.71886C12.6685 3.90546 12.8304 4.14044 12.8754 4.43761C12.9059 4.81476 12.8376 5.10773 12.5938 5.40062C12.5056 5.49746 12.4134 5.58963 12.3196 5.68102C12.2337 5.76673 12.1545 5.85701 12.0757 5.9492C12.0417 5.98842 12.0058 6.02593 11.9691 6.06261C11.9871 6.0629 12.005 6.06319 12.0235 6.06349C12.1057 6.06518 12.1878 6.06779 12.2699 6.07042C12.2981 6.07086 12.3264 6.07131 12.3555 6.07176C12.5317 6.0782 12.6446 6.09696 12.7816 6.21886C12.8678 6.34421 12.8607 6.4784 12.8441 6.62511C12.8027 6.73108 12.7683 6.76967 12.6733 6.8316C12.5251 6.89 12.3947 6.88856 12.2367 6.88756C12.2055 6.88765 12.1743 6.88774 12.1422 6.88783C12.0764 6.88789 12.0106 6.88772 11.9449 6.88733C11.8445 6.88683 11.7441 6.88733 11.6437 6.88792C11.5796 6.88786 11.5156 6.88774 11.4515 6.88756C11.4217 6.88775 11.3918 6.88794 11.361 6.88813C11.1463 6.88588 11.0128 6.84959 10.85 6.70128C10.7531 6.57458 10.7392 6.4373 10.7504 6.28136C10.7991 6.07621 10.9539 5.94277 11.1025 5.80284C11.1893 5.71749 11.2681 5.62815 11.3476 5.53618C11.4496 5.41985 11.5562 5.30782 11.6625 5.19542C11.6843 5.17226 11.7061 5.14909 11.7286 5.12523C11.8955 4.94834 11.8955 4.94834 11.9749 4.8719C12.0697 4.7728 12.0638 4.66339 12.0629 4.53136C12.059 4.43811 12.059 4.43811 12.0004 4.37511C11.8745 4.32307 11.7623 4.30229 11.6293 4.33409C11.5277 4.39686 11.4779 4.4361 11.4461 4.55455C11.4372 4.60301 11.4372 4.60301 11.4281 4.65245C11.3786 4.86358 11.3786 4.86358 11.2914 4.94347C11.1602 5.01524 11.0878 5.03136 10.9379 5.03136C10.8064 4.98424 10.7281 4.93305 10.6566 4.81261C10.5816 4.5874 10.631 4.3704 10.7191 4.15636C10.8729 3.86317 11.0845 3.66918 11.3943 3.55406C11.7634 3.44205 12.1223 3.49855 12.4379 3.71886Z" fill="#171717"/>
</g>
<defs>
<clipPath id="clip0_481_1818">
<rect width="16" height="16" fill="white"/>
</clipPath>
</defs>
</svg>
